/* XPM */
static char *opensy64[] = {
/* columns rows colors chars-per-pixel */
"64 64 229 2 ",
"   c #040402",
".  c #060905",
"X  c #0A0B06",
"o  c #0C0E09",
"O  c #070B08",
"+  c #120F08",
"@  c #110C07",
"#  c #0E110A",
"$  c #12130D",
"%  c #1A150C",
"&  c #1E190F",
"*  c #161511",
"=  c #191711",
"-  c #1D1A13",
";  c #22190D",
":  c #2A1E0D",
">  c #21170B",
",  c #221D15",
"<  c #261E14",
"1  c #252016",
"2  c #2B2214",
"3  c #262119",
"4  c #2B251A",
"5  c #2E281D",
"6  c #342513",
"7  c #362915",
"8  c #3D2B15",
"9  c #322A1E",
"0  c #3A2B1E",
"q  c #352717",
"w  c #3E311E",
"e  c #362D20",
"r  c #3A2F21",
"t  c #3C3223",
"y  c #432D15",
"u  c #442F19",
"i  c #482E14",
"p  c #453116",
"a  c #4D3216",
"s  c #463219",
"d  c #4C3519",
"f  c #4E381B",
"g  c #533415",
"h  c #52361A",
"j  c #543A1C",
"k  c #5B3D1C",
"l  c #5B3413",
"z  c #502B0D",
"x  c #633A16",
"c  c #6C3C13",
"v  c #613E1C",
"b  c #643511",
"n  c #66360D",
"m  c #423524",
"M  c #4B3A25",
"N  c #463628",
"B  c #4C3C2B",
"V  c #483727",
"C  c #553D21",
"Z  c #5B3F21",
"A  c #513E29",
"S  c #5B401E",
"D  c #62431F",
"F  c #6B451D",
"G  c #774719",
"H  c #7F511F",
"J  c #5D4322",
"K  c #54422D",
"L  c #5A452B",
"P  c #574020",
"I  c #564432",
"U  c #584632",
"Y  c #5D4B34",
"T  c #634522",
"R  c #684523",
"E  c #654924",
"W  c #6B4C25",
"Q  c #634B2D",
"!  c #6C4E29",
"~  c #724D25",
"^  c #744D26",
"/  c #6D5127",
"(  c #6E512A",
")  c #735127",
"_  c #7A5326",
"`  c #73542B",
"'  c #7A552B",
"]  c #76582E",
"[  c #7B5A2E",
"{  c #614E34",
"}  c #645036",
"|  c #6A5234",
" . c #655239",
".. c #6A563B",
"X. c #6C593E",
"o. c #715633",
"O. c #7D5D31",
"+. c #745A37",
"@. c #7E6134",
"#. c #7C623A",
"$. c #7C602F",
"%. c #715D41",
"&. c #6D5A40",
"*. c #855521",
"=. c #835D2D",
"-. c #885A28",
";. c #915E28",
":. c #825E31",
">. c #885E30",
",. c #8B612E",
"<. c #86612E",
"1. c #93652C",
"2. c #846334",
"3. c #8A6534",
"4. c #8C6936",
"5. c #886738",
"6. c #86693B",
"7. c #8C6B39",
"8. c #836638",
"9. c #936A35",
"0. c #9C6D34",
"q. c #926D3A",
"w. c #966C38",
"e. c #8E713E",
"r. c #95713C",
"t. c #9B743D",
"y. c #9E793E",
"u. c #9C7236",
"i. c #A46D2C",
"p. c #A1753C",
"a. c #A37A3E",
"s. c #A87939",
"d. c #B37D3B",
"f. c #886D42",
"g. c #8D7345",
"h. c #957543",
"j. c #9A7641",
"k. c #9D7B43",
"l. c #9E7E4A",
"z. c #957A49",
"x. c #A37D42",
"c. c #AA7D42",
"v. c #A37E4B",
"b. c #B9863D",
"n. c #B3833E",
"m. c #AC813C",
"M. c #9E8249",
"N. c #9E8251",
"B. c #A68144",
"V. c #AB8345",
"C. c #A5844A",
"Z. c #AC8649",
"A. c #AC894C",
"S. c #A9894B",
"D. c #B48543",
"F. c #BA8A44",
"G. c #B38C4B",
"H. c #BB8E4A",
"J. c #B38B46",
"K. c #B7904D",
"L. c #BA924D",
"P. c #BC944B",
"I. c #AC8B51",
"U. c #A48751",
"Y. c #B38E51",
"T. c #AD9155",
"R. c #B59354",
"E. c #BB9552",
"W. c #BE9954",
"Q. c #B4965A",
"!. c #BC9B5B",
"~. c #B89859",
"^. c #AF904D",
"/. c #BDA45F",
"(. c #B99D61",
"). c #BEA365",
"_. c #C1944C",
"`. c #C4994C",
"'. c #D19E48",
"]. c #C29B55",
"[. c #C49E5A",
"{. c #C69B53",
"}. c #C6A156",
"|. c #CBA356",
" X c #C6A25B",
".X c #CAA45B",
"XX c #CDA95D",
"oX c #D2AC5E",
"OX c #D3A755",
"+X c #CDA34F",
"@X c #C09F62",
"#X c #C4A562",
"$X c #CAA662",
"%X c #CDAA63",
"&X c #C5AB6A",
"*X c #CBAD6A",
"=X c #C3A863",
"-X c #D2AD63",
";X c #D0AF69",
":X c #CDB16B",
">X c #D5B264",
",X c #D9B565",
"<X c #D4B36B",
"1X c #D9B66B",
"2X c #DBBA6C",
"3X c #D9B96B",
"4X c #DCBD73",
"5X c #D7BC77",
"6X c #E0BE64",
"7X c #DEC174",
"8X c #DDC27A",
"9X c #DDC06F",
"0X c #E6C46A",
"qX c #E1C374",
"wX c #E2C579",
"eX c #E4CA7C",
"rX c #E9CB7B",
"tX c #E8CA75",
"yX c #EFD378",
"uX c #F1D57D",
"iX c #F3CF75",
"pX c #DBC582",
"aX c #E7CE82",
"sX c #ECD383",
"dX c #E9D48B",
"fX c #F4DA85",
"gX c #EBD792",
"hX c #FDE58A",
"jX c #F8E695",
/* pixels */
"3 3 4 4 4 4 4 4 4 4 4 4 5 5 9 9 e e e r t t t m m m N N m t m N N V V V V V V I K K I U I I I I U U U U U { { U } } } ..X.&.X.%.",
"3 4 4 4 4 4 4 4 4 4 4 4 5 9 9 9 e 9 e e t t t r t m K | +.6.h.k.h.h.g.f.+.} K A V I I U I I I I I U U U U U U { } } } ..X.X.&.%.",
"3 3 4 4 4 4 4 4 4 4 9 9 5 5 9 9 9 9 t t 9 t A | h.R. X.X[.[.[.].].]..X-X1X4X*XT.f.| K V U U U I U U U U { U { } Y } } X.} X.X.&.",
", 4 4 4 4 4 4 4 4 5 5 4 9 9 e r r e e m Q h.!.[.G.q.' F x g l b c x l l T :.x. X4X8X(.f.{ K U U U U U I U U U U U X.} } } ....X.",
"3 3 4 4 4 4 4 4 4 9 5 4 e e t 9 e 9 Q k.G.x.,.H x x ~ [ 4.r.u.k.x.k.u.6.[ T a i F j.;XsX<Xz.} U { U U U U U U U U } { { X.X.....",
"3 4 4 4 4 3 4 4 4 5 9 9 e t e 4 L k.G.r.~ F G <.u.x.G.G.E.E.].[.[.[..X.X.X XW.A.2.x l ` !.sX8Xz.{ U { { U U { } } U { } U } ..X.",
"3 4 4 3 3 4 4 4 4 5 4 r r 4 r 8.A.y.~ x ~ q.x.a.B.Z.G.G.Y.E.!.W.$X]. X$X$X$X-X<X<X%XI.! z W #XfX*X#.} ..{ U } } U { } } } } } ..",
"4 3 4 4 4 4 4 4 5 5 4 e 4 M r.Z.-.c ~ 9.r.u.x.Z.x.Z.Z.Z.Y.W.E.E.5X.X$X.X%X%X-X-X<X<X1X1XQ.! z 4.sXsXl.| | | } U { } { { } ..} } ",
"3 3 3 4 4 4 4 4 4 9 5 4 | C.u.H _ 3.4.r.j.j.j.k.!.Z.Z.G.G.h.E. X<X$XE.$X%X<X%X<X4X<X1X4X4X2XA.k x *XjXQ.| ..} } ..} { { } } ..} ",
"3 4 3 3 4 4 4 4 4 4 4 o.k.u.*.=.2.2.6.r.r.u.j.2.!.E.K.G.V.r.3. X-XG.K.%XY.I.<X5XqX,X1X4X4X4XqX%X[ l A.jX&X! | +.} { { } } { } ..",
"3 4 3 3 4 4 3 3 3 , o.x.1.-.=.O.2.2.6.6.q.q.k.A.x.R.[.x.V.Z.V.a.j.4X].[. Xj.<X2XwX4X1X4X4X4X4X4X4Xh.l x.jX&X] ..| ..} U } } } X.",
"1 3 4 4 4 3 3 3 - Q r.,.-.:.` O.2.2.3.3.6.6.:.' u.x.&XG.x.x.u.x.3.Z.[.E.[.[.E.1XK.].1X2X4X4X4X4X8XwXI.b a.jX#X! +...{ U { } } } ",
", 3 3 3 4 3 , * L r.,.*.[ ` ` [ O.2.2.2.6.6.6.` a.,.[ Z.x.x.V.G.E.G.K.].H.a.=.@X,X-X2X4X2X4X4X8XwXwXrXU.c Z.jXQ.+...} { } } } ..",
", 1 3 , 3 3 * m q.3.-.:.! ` ] [ O.O.2.2.2.2.6.2.3.r.r.u.x.x.V.Z.Z.G.E.E.]..X[.k.,X-X<X2X2X4X4X8XwXwXwXrXC.n !.jXz.{ ..} U U { } ",
", , 3 1 3 - 4 6.4.-.=.! ` ` ] [ 2.k.A.A.Z.r.4.2.6.6.q.u.k.x.V.V.V.Z.G.E.E.]..X$X-X,X<X2XwXwXrXrXwXwXwXwXwXr.G 5XaX#...} U } } } ",
", , 3 , - * | r.-.-.W W ` ` ] 3.Z.x.h.k.Y.&X2.2.2.5.6.r.r.V.[.#X$XE.G.E.K.E.]..X-X%X[.4X8XwXrXdXaXqXwXwXwX4X' *.gX&XQ ..{ { } U ",
", , , , $ w r.9.;.! W ! ! ` O.u.6.5.2.q.h.:X6.[ :.2.4.q.Z.E.[.[..X4X%XG.G.K.E.].%XE.G.4X2X8XqXrXgXrXqXwXwXrX#Xc V.jXz.{ | { U U ",
", , , - = @.9.i.[ E ! ! ( ` k.q.2.5.6.q.q.#X4.[ O.2.2.Z..X].E.E.E. X8XG.Z.G.E.]..XE.V.2X2X4X8X8XrXgXtXqXwXwXrXl.c 5XpXo.} { } { ",
"- , , o M r.0.9.W W W ! W 6.k.6.2.6.6.2.5.#Xq.[ O.2.` 9.[ 2.E.E.].].8XG.V.G.K.E..XE.G.2X2X2X2X8XqXdXgXtXwXwXwX5X~ 0.jXN.{ } U { ",
", - = = ] 9.s.` T W W W 2.k.@.2.2.2.2.2.2.&Xj.[ O.:.` ) ` j V.W.W.].4XE.V.Z.G.E.[.G.W.2X<X<X2X8XqXqXgXsXqXqXqXrXZ.c 3XpXo.} U { ",
"- - o m 6.0.0.T E W W ( u.2.[ ` [ 2.2.2.O.Q.E.[ O.:.2.2.6.h.G.K.E.E.4XW.a.Z.G.E.].Y..X,X2X1X2X2X4XqXwXgXrXqXqXqX<X~ a.jXg.L { U ",
"- - o Q 6.b.[ J E W E q.O.` ` ] O.O.2.2.O.h.<X=.2.2.2.3.2.x.G.G.K.K.<XW.x.Z.G.E.K.E.-X,X,X1X1X2X2XqXqXrXdXwXqX4XqXk.G 8X).Q { { ",
"- $ , ` u.n.W T E T 3.4.` ` ` ` ] ] O.2.2.:.!.(.[ O.2.2.2.V.Z.G.K.G.%X[.a.Z.G.K.G..XoX,X,X,X2X2X2X4X8X8XaXdX4X2XqX XG K.rXo.U { ",
"- o w O.b.u.J E T ] r.` [ ` ` ` ` ` ] @.2.2.3.#X!.4.:.[ 6.G.V.G.K.G.%X:Xa.Z.G.E. XXXXX-X,X,X,X2X2X2X8XqXrXaXrX2X4X1X=.1.sXf.L { ",
"* o M 2.'.[ S T E 9.[ ` ! ] ` ` ` ( ` ] O.2.2.3.I.!.R.R.G.Z.V.G.K.K.E.5X:X%X%X.X}.}..XXXoX-X,X1X2X2XqX$X%XrXdXqX2X2Xx.H 8XT.C { ",
"$ $ J 9.'.E J T 3.[ ] ' ` ! ` ` ` ` ` ` O.2.2.q.3.q.x.x.x.x.V.V.G.G.G.K.].].].W.].]..X.X-XoX,X,X,X1X2X$Xc.8XwXaX2X2XR.G %X&XK U ",
"# & Q a._.J k =.3.( ' ' ` W ( ( ( ` ` ` ` [ [ 2.6.q.q.r.a.x.V.V.V.G.G.K.K.K.E.W.W.].}..X.XoXoX-X,X,X,XqX!.G.rXaXrX2X X*.H.4XQ U ",
"o 1 ( _.m.f ` 3.! ` _ ` W E W ` ` ` ` ` [ O.O.O.2.6.4.r.k.x.x.V.V.G.G.G.K.K.K.E.E.].}..X.XXXoX-X,X Xa.2X8Xc..XqXrX4X-X-.p.qXo.K ",
"o 2 ( +Xu.k 9.` ` ~ ` ! ` ` ` ( ( ` ` [ ` [ [ 2.2.2.6.r.u.u.x.V.V.V.G.G.K.G.K.K.E.].]. X.XXX-X-XoX<XZ.].qX:Xa.2X8X8X,X9.i.qX#.A ",
"O 7 ` OX4.,.=.( W ` ` W _ [ ( W E ` ` ` ` [ [ 2.5.2.q.r.r.u.x.x.V.V.V.G.G.G.G.K.K.K.]..X.X.X-XR.a.,X%Xa.,X8X).a.qXrX9Xa.i.qX6.M ",
". 7 ` _.0.~ T k T [ W ~ ` ` ` _ ` ( W ` O.[ [ 2.2.2.4.q.q.u.x.x.a.V.V.G.G.G.G.G.K.K.].|. XG.].%Xu.|.,XY.D.2X4XY.w.E.@Xq.;.2X6.M ",
". 7 ] OX` y f j [ W [ ~ ` ! ` [ ( ` ~ ` W ` :.2.2.2.3.3.6.r.k.u.x.V.V.V.G.G.G.G.K.K.Z.Z.XXh.a.-XY.a.oX<Xu..X<XrX#XV.Z.4.~ ,X6.A ",
". 6 ` 0X2.f j 6.W ( ~ ` ` W ~ [ W ) =.[ ! W 4.` ` 2.2.q.4.6.q.r.y.x.c.V.G.V.V.Z.q.].k.3..XR.9..X#X9.|.,XQ.a.2X<XrX-X-Xu.*.,X6.V ",
". 2 ( 0X6.y O.@.E W x ` W ` ` ( ` ' ` ` =.[ [ ' ' 2.! 6.2.3.6.r.u.x.x.a.G.O.a.R.>.J.W.9.K. Xq.J.XXA.c.oX,Xu.G.,XqX2X.Xr.1.,X8.V ",
". : E 6Xr.j =.j J h ! W ` ~ ` E ' ' ! ' =.] O.=.[ 2.h ` 2.2.2.6.q.u.u.a.V.F r.W.3.a.[.q.a. XC.u.}.#X9.`.XX*X>.6.A.[..Xw.0.,XO.M ",
". ; T |.Z.j a y 8 ( [ E ~ ! ` W ~ ` W [ ' / :.' [ 3.k T 6.O.2.3.q.r.u.u.a.T 3.G.q.0.W.x.9.].E.,.K..Xv.a.XX<X%Xx.u.x.E.9.p.,X! V ",
". $ h }..Xh j j k 5.E ` T ( / ` ~ ` ` ' ` ` [ ) [ q.W k 2.[ O.2.4.r.r.u.Z.~ 3.V.x.3.G.G.=.K.[.q.a.].#X3.].[.4X.X]..XY.9.n.XXC N ",
"o o y A.0XJ j s $.] E W T W E W ` ! [ _ ( [ [ ) ] 9.) 2.2.[ [ 2.3.4.q.r.=X2.=.a.A.:.V.E.3.a.W.I.3.W..Xk.9..X%X3XK.E.A.9._.W.s V ",
"o . 7 6.yXO.i J 2.T T a ! E W ~ ` ! ` ~ ( O.) ' O._ -.2.[ [ [ O.2.2.6.4.A.I.~ x.R.' a.E.r.3.K.!.:.G.E.$X:.3.Y.*XW.K.x.p.{.k.0 M ",
"o   : ( tXk.i S a y y E ( J ~ ~ ` ! ~ T ( ' x ` W W 2.] ` [ [ [ O.2.2.q.9.!.6.~ x.O.:.J.C.' G.E.j.9.E..XW.3.2.2.G.G.u.d..XO.0 m ",
"o . % j XX%Xj f f f f 2.J E R W ! ` j ( T j h h j :.] ` ` ] ] O.:.2.2.2.4.x.#XW R :.h ` A.T 4.].R.' K.K.<XG.V.Z.G.B.u.F.].C r m ",
"o . o 8 z.uX` h j f / ` P W D ) T k f h h j j j O.5.( ` ` ` O.[ O.2.[ 2.4.4.R.Y.=.[ ` ! ~ [ Z [ G.` O.].-X].a.V.V.j.a.K.B.0 r t ",
"o .   : ( yXU.g k f 2.T T j a g f f j j j j j J 6.( ` ` T ! ` [ [ [ f.[ 3.6.q.#X<.[ O.O.2.3.2.` W 2.T o.r. XV.a.x.u.b.].` 0 r r ",
"o     $ f !.rXT j h h a f s s f h j j j Z j j f ) ( ( T R ` ` ` [ [ 6.6.Z 3.9.W.<.` ` [ 2.:.2.3.3.6.q.` W 4.x.a.r.a.K.G.u 9 0 t ",
"o .     6 O.hXU.g h f f f f f f j j j j Z j a 8.` W k D [ W ( ` ` O.` l.O.h [ C.).~ ` [ [ O.2.3.2.3.3.q.u.q.q.u.u.b.E.2.5 9 9 e ",
"o o     $ j /.sXT j j f f f f f f J T T J j #.6.h f k [ W E W ` ` O.O.O.Q.) f h !.~.=.2.2.2.3.3.2.3.3.4.3.q.w.6.a.K.G.f 9 9 9 9 ",
"o o       7 ` uX).g j f f f s f f / x.k.k.C.e.x j f ] ] E E W W ( ` O.' k.T.) J g (. XW.R. XV.[ [ :.4.3.2.9.4.y.F.].[ 2 9 9 9 9 ",
"o o       + s M.hX6.a h f f f f f j k J ~ h 6.C.a E @.J Z W E W ( ` [ ` ) T.r.E 2.:.J ` k.3.a.[ [ [ =.:.3.3.6.F.H.k.8 4 4 4 4 9 ",
"o o o       : C *XsXW g f f f f f s h ' j 6 h l.j O.W S k W k E [ R ` @.W 2.~.) q.=.T u j.2.~ ` ' [ ' =.3.3.V.D.Z.C , 4 4 4 4 9 ",
"o o o .       8 E sX5Xk h h f f p p 8 ~ j y f y E ` J x E W k W ` T T 6.) ~ k.k.g -.W J D ` ` ) ` ` [ =.2.V.D.V.` : 4 4 4 4 4 4 ",
"# # o o       @ s #.hX&Xg h f f f a p f f f p P @.T T k W W k W ` E E 6.[ ) [ R.2.D W E T W / ' ) ` <.2.k.F.V.2.2 1 4 1 4 4 4 4 ",
"# o o o o       % s g.jX).g h h f f a a f f p 2.W D k S E W k E ` ` D [ 2.T 2.4.~.F E T E E W ` ` [ =.x.F.x.6.7 , , , 1 2 4 4 4 ",
"o # o o o         - s g.hX&Xk a h f f a a y ( [ J W a T W F j W ( ' k W r.W k W A.k.k T E E W ) ) O.x.D.x.6.8 = : , 1 , , 4 4 4 ",
"# # o o o o         ; u f.hX8X( a h f f f y j h k h j T W k k ! W [ a ` 4.4.i j k W D E E W ~ W O.c.D.u.2.8 % , , 1 , , , 2 1 4 ",
"# # # o o o o         ; y ] rXfXh.a a j f f p s f y W F W a j ! E [ a k W y.W j k k T W W W W 4.D.D.j.2.7 = , , , , , , 1 1 1 4 ",
"# # # # o o o o .       $ y J =XhX&X] a a j j f f f j k j y y E / _ f y a T D k D D T D E O.x.F.c.q.` 2 % , , , 1 , , , 1 , 1 4 ",
"# # # # # o o o o .       o 6 f e.tXfXQ.` h a h j j f f f f 8 j [ k f j j j k D S k T O.u.F.H.j.O.S & * , , - - , , , , , , 4 4 ",
"# # # # # $ # o o o           ; 8 J C.tXuX!.6.T h a a h h h f h k h j j j j k k E 2.x._.H.u.[ W 8 $ = - - - , , , , , , , , , 4 ",
"# # $ $ $ $ # # o o o .         o 6 y E M.2XiX2XR.f.o.J j j h f f h j k T ` 3.x._.{.H.q.` E p % # - - - - - , , , , , , , , , - ",
"# # # $ $ $ # # # o o o o           $ 2 y J 8.A.,XtX0X,X.XE.Z.x.B.V.G.H.`.OX|._.x.2./ S 8 ; o $ = - - - - - , , , , - - - , , , ",
"# # # # # $ $ $ $ # # # o o .           o ; 6 s J ` 6.C.E.].`.K.{.+X_.J.y.4.] W S p 6 % o o $ * $ = - - - - - - - , , - - , , - ",
"# $ # $ $ $ $ $ $ $ $ $ $ # o o o             @ > : 8 u f C J E E J J C f f 7 : % o o o $ $ $ = - - - - - , , - - , , - - , , , ",
"$ $ $ $ $ $ $ $ $ $ $ $ $ # # o o o o .               o @ % > ; > ; ; % + o o o o $ $ $ * = * - - - - , - , , , , , , , , , , , ",
"$ $ $ $ $ $ $ $ $ $ $ $ $ $ $ $ # o o o o o o o o o o             . . o o $ $ $ $ $ $ - - - - - - - - 1 - , , , , - , , , - , , "
};
