/* XPM */
static char *opensyria16[] = {
/* columns rows colors chars-per-pixel */
"16 16 249 2 ",
"   c #28231A",
".  c #2B251B",
"X  c #2E281D",
"o  c #2C261C",
"O  c #362E22",
"+  c #59462C",
"@  c #745833",
"#  c #826137",
"$  c #86653A",
"%  c #7C623C",
"&  c #705B3B",
"*  c #5D4B35",
"=  c #544331",
"-  c #5E4C35",
";  c #645239",
":  c #6C593E",
">  c #282219",
",  c #2C251B",
"<  c #2A251C",
"1  c #4A3B26",
"2  c #7B5A30",
"3  c #956D37",
"4  c #A37B40",
"5  c #B18A4D",
"6  c #BC9553",
"7  c #B89454",
"8  c #AF8C51",
"9  c #997C49",
"0  c #7C6541",
"q  c #5B4932",
"w  c #614F37",
"e  c #67543A",
"r  c #29241A",
"t  c #221F18",
"y  c #4D3D25",
"u  c #8D6532",
"i  c #886332",
"p  c #94713D",
"a  c #B08B4D",
"s  c #AC8549",
"d  c #C09B58",
"f  c #CAA762",
"g  c #DCBB70",
"h  c #CCAA66",
"j  c #B39154",
"k  c #90764A",
"l  c #604D34",
"z  c #1E1C16",
"x  c #362D1E",
"c  c #845E2E",
"v  c #76562C",
"b  c #90703D",
"n  c #8E6D3A",
"m  c #906D39",
"M  c #AD8749",
"N  c #B68F4F",
"B  c #BB9452",
"V  c #D1AD64",
"C  c #E5C97D",
"Z  c #DABD73",
"A  c #B89556",
"S  c #816A45",
"D  c #5C4A33",
"F  c #1A1915",
"G  c #74552C",
"H  c #755228",
"J  c #7E5F33",
"K  c #91703D",
"L  c #987843",
"P  c #7D5C2F",
"I  c #AD884B",
"U  c #C6A35D",
"Y  c #B68E4E",
"T  c #C5A05B",
"R  c #DDBF72",
"E  c #EBD283",
"W  c #D3B26A",
"Q  c #A68650",
"!  c #665338",
"~  c #372D1B",
"^  c #85602E",
"/  c #6F5129",
"(  c #7B5C31",
")  c #77582F",
"_  c #997844",
"`  c #896939",
"'  c #9F7A41",
"]  c #C29E57",
"[  c #B38D4E",
"{  c #C9A35A",
"}  c #D8B667",
"|  c #E0C375",
" . c #E6CA7D",
".. c #B99352",
"X. c #7D6640",
"o. c #554323",
"O. c #87632F",
"+. c #74542A",
"@. c #6F512A",
"#. c #71532C",
"$. c #826133",
"%. c #9B7741",
"&. c #A98144",
"*. c #B6904D",
"=. c #BF9A54",
"-. c #C8A157",
";. c #D5B062",
":. c #D0AD62",
">. c #D7B971",
",. c #CCA75F",
"<. c #8C6F3F",
"1. c #634D28",
"2. c #825E2E",
"3. c #6D4D26",
"4. c #73522A",
"5. c #71522A",
"6. c #79592E",
"7. c #896636",
"8. c #9D773E",
"9. c #AC8445",
"0. c #B48D4A",
"q. c #BD9750",
"w. c #C29C56",
"e. c #C09A55",
"r. c #C9A761",
"t. c #C39E59",
"y. c #94723E",
"u. c #624E29",
"i. c #76592D",
"p. c #644723",
"a. c #725129",
"s. c #74532A",
"d. c #7C592D",
"f. c #7B5A2E",
"g. c #886636",
"h. c #9E783E",
"j. c #9B753D",
"k. c #A98245",
"l. c #AE8748",
"z. c #B7904E",
"x. c #C19D59",
"c. c #BB9351",
"v. c #8F6D3C",
"b. c #4D4022",
"n. c #7F6233",
"m. c #593E1E",
"M. c #6E4F28",
"N. c #745229",
"B. c #7A572C",
"V. c #7A5B2F",
"C. c #8F6C38",
"Z. c #96723D",
"A. c #97713B",
"S. c #A68044",
"D. c #B08A4B",
"F. c #B59151",
"G. c #B78D4B",
"H. c #7F6036",
"J. c #1F1B0E",
"K. c #8E723F",
"L. c #54391B",
"P. c #5E4321",
"I. c #583D1E",
"U. c #573D1F",
"Y. c #70522B",
"T. c #7F5F32",
"R. c #96733E",
"E. c #7F5E31",
"W. c #7F5D31",
"Q. c #93703D",
"!. c #A47F44",
"~. c #AC8242",
"^. c #574329",
"/. c black",
"(. c #6F5D35",
"). c #7A5D32",
"_. c #3B2711",
"`. c #634825",
"'. c #71542C",
"]. c #664925",
"[. c #684C26",
"{. c #7B5B30",
"}. c #826335",
"|. c #8D6D3C",
" X c #7D5B2E",
".X c #9D743C",
"XX c #8C6A38",
"oX c #2B241A",
"OX c #070A06",
"+X c #0F0C07",
"@X c #967D49",
"#X c #412A12",
"$X c #5C4221",
"%X c #6A4D26",
"&X c #664721",
"*X c #705128",
"=X c #896837",
"-X c #76562B",
";X c #6A4B24",
":X c #856030",
">X c #9E773D",
",X c #372C1B",
"<X c #262018",
"1X c #10120B",
"2X c #010402",
"3X c #1C180D",
"4X c #957C48",
"5X c #765B31",
"6X c #4B3318",
"7X c #513618",
"8X c #583C1B",
"9X c #614420",
"0X c #634622",
"qX c #664822",
"wX c #825D2E",
"eX c #956F39",
"rX c #3B2F1B",
"tX c #1D1912",
"yX c #292318",
"uX c #0E100A",
"iX c #11130C",
"pX c #020503",
"aX c #0C0A06",
"sX c #685531",
"dX c #8C703E",
"fX c #7E6133",
"gX c #72542A",
"hX c #745429",
"jX c #7D5B2D",
"kX c #866332",
"lX c #694F29",
"zX c #261F14",
"xX c #191711",
"cX c #231E15",
"vX c #10110B",
"bX c #11120C",
"nX c #13150E",
"mX c #0A0D08",
"MX c #19150B",
"NX c #45381E",
"BX c #594625",
"VX c #5A4624",
"CX c #48391D",
"ZX c #241E11",
"AX c #0C0E0B",
"SX c #191712",
"DX c #221D14",
"FX c #201C14",
"GX c white",
/* pixels */
"  . X o O + @ # $ % & * = - ; : ",
"> , < 1 2 3 4 5 6 7 8 9 0 q w e ",
"r t y u i p a s d f g h j k l ; ",
"z x c v b n m M N B V C Z A S D ",
"F G H J K L P I U Y T R E W Q ! ",
"~ ^ / ( ) _ ` ' ] [ { } |  ...X.",
"o.O.+.@.#.$.%.&.*.=.-.;.:.>.,.<.",
"1.2.3.4.5.6.7.8.9.0.q.w.e.r.t.y.",
"u.i.p.a.s.d.f.g.h.j.k.l.z.x.c.v.",
"b.n.m.M.a.N.B.V.C.Z.A.S.D.F.G.H.",
"J.K.L.P.I.U.Y.G T.R.E.W.Q.!.~.^.",
"/.(.)._.`.'.].[.{.}.|.m  X.XXXoX",
"OX+X@X`.#X$X%X&X*X=X-X;X:X>X,X<X",
"1X2X3X4X5X6X7X8X9X0XqXwXeXrXtXyX",
"uXiXpXaXsXdXfXgXhXjXkXlXzXxXcXcX",
"vXbXnXmX/.MXNXBXVXCXZXAXSXDXFXFX"
};
