/* XPM */
static char *opensy32[] = {
/* columns rows colors chars-per-pixel */
"32 32 179 2 ",
"   c #020301",
".  c #090502",
"X  c #060905",
"o  c #0B0B06",
"O  c #0C0E09",
"+  c #0E110B",
"@  c #12130D",
"#  c #1A160E",
"$  c #1D180D",
"%  c #161612",
"&  c #191713",
"*  c #1E1A13",
"=  c #22170C",
"-  c #22180C",
";  c #2A1D0E",
":  c #221D15",
">  c #231F18",
",  c #262116",
"<  c #2E2210",
"1  c #262219",
"2  c #2B241B",
"3  c #2E281C",
"4  c #312512",
"5  c #322A1E",
"6  c #3E2D18",
"7  c #362D20",
"8  c #3C2F21",
"9  c #3C3221",
"0  c #41250F",
"q  c #412711",
"w  c #432C14",
"e  c #463016",
"r  c #4A3116",
"t  c #4B3519",
"y  c #4C3A1E",
"u  c #45341C",
"i  c #533717",
"p  c #503619",
"a  c #533A1D",
"s  c #5A3E1E",
"d  c #463620",
"f  c #4B3C2B",
"g  c #4D3A24",
"h  c #513E22",
"j  c #503F2C",
"k  c #56401F",
"l  c #5D411E",
"z  c #61431F",
"x  c #534124",
"c  c #5D4321",
"v  c #55422B",
"b  c #5A452E",
"n  c #5D4A2E",
"m  c #564532",
"M  c #594732",
"N  c #5D4B34",
"B  c #634521",
"V  c #664924",
"C  c #6B4C25",
"Z  c #654F2A",
"A  c #6B4E28",
"S  c #714E26",
"D  c #714E28",
"F  c #6E5127",
"G  c #6E512A",
"H  c #745227",
"J  c #7A5427",
"K  c #73532A",
"L  c #7A562B",
"P  c #76592E",
"I  c #7C5A2D",
"U  c #614E34",
"Y  c #635137",
"T  c #6A5435",
"R  c #655339",
"E  c #69563C",
"W  c #6D5A3D",
"Q  c #775E32",
"!  c #7D5D31",
"~  c #715A3A",
"^  c #7E6135",
"/  c #77613E",
"(  c #7C633D",
")  c #705B40",
"_  c #7C6441",
"`  c #835E2E",
"'  c #8C5F2B",
"]  c #805F31",
"[  c #8F622C",
"{  c #93662F",
"}  c #846334",
"|  c #896534",
" . c #8C6936",
".. c #866639",
"X. c #876B3D",
"o. c #8C6C3A",
"O. c #916733",
"+. c #936A36",
"@. c #996C34",
"#. c #926E3A",
"$. c #95723C",
"%. c #9C753D",
"&. c #9E783E",
"*. c #A0763B",
"=. c #A27A3D",
"-. c #AB7E3B",
";. c #896B40",
":. c #867149",
">. c #8C7349",
",. c #947542",
"<. c #997641",
"1. c #947944",
"2. c #9C7B43",
"3. c #90794F",
"4. c #A37D43",
"5. c #A97D40",
"6. c #9E844C",
"7. c #998253",
"8. c #9D8558",
"9. c #A68145",
"0. c #AB8345",
"q. c #A4844B",
"w. c #AB8649",
"e. c #AE894C",
"r. c #B28445",
"t. c #B58947",
"y. c #B98A46",
"u. c #B38C4B",
"i. c #B98D48",
"p. c #B7914E",
"a. c #B9924D",
"s. c #A28755",
"d. c #AE8D53",
"f. c #AF9356",
"g. c #AE945B",
"h. c #B59354",
"j. c #BB9453",
"k. c #BD9954",
"l. c #B69A5E",
"z. c #BF9E58",
"x. c #C29C56",
"c. c #C29D5A",
"v. c #C6A057",
"b. c #C5A25C",
"n. c #CAA45B",
"m. c #CEA85C",
"M. c #D2AD5F",
"N. c #C5A461",
"B. c #CAA761",
"V. c #CDAA63",
"C. c #C5AB6C",
"Z. c #CAAD6A",
"A. c #C3AB64",
"S. c #D2AD62",
"D. c #CFB36C",
"F. c #D4B165",
"G. c #D6B36A",
"H. c #D7B46B",
"J. c #D4B56D",
"K. c #D8B66A",
"L. c #DCBC6D",
"P. c #D3B772",
"I. c #D5BA71",
"U. c #DBBB71",
"Y. c #DCBB73",
"T. c #DDBD73",
"R. c #DCBF74",
"E. c #DFC275",
"W. c #E1C275",
"Q. c #E1C475",
"!. c #E2C679",
"~. c #E4C778",
"^. c #E5CA7D",
"/. c #EBCF7F",
"(. c #E9C97C",
"). c #E5CD81",
"_. c #EBCF82",
"`. c #E7D085",
"'. c #EAD285",
/* pixels */
"1 2 2 2 2 2 3 5 7 7 7 7 f U ~ ( ( _ W N f f m m M N N N R E W ) ",
"1 2 2 2 2 3 5 7 2 9 U ;.,.#.+.+.@.#.<.q.s.:.N j N N N N R R E W ",
"1 2 2 2 3 5 7 5 n o.O.[ ` +.&.4.w.4.$.|  .4.l.7.N M N N N U R E ",
"1 2 2 2 5 2 8 ^ +.J | &.w.u.k.b.S.V.K.J.V.q.} q.C._ b Y U Y R R ",
"1 1 2 2 2 9 #.{ I #.<.2.h.u.4.u.B.c.c.J.R.Q.R.2. .D.>.U R U Y R ",
"1 2 2 > 5  .[ I }  .o.o.w.h.4.*.e.b.u.B.F.J.R.(.B.| J.>.U Y U R ",
"> 1 > 1 } ' H P ! | } }  .<.4.0.w.k.k.e.S.K.R.R._.Z.| P._ U U R ",
"> 1 % G { H G ! $.4.e. .| #.4.k.k.u.k.n.V.J.Q.).~.(.b.&.C.U U U ",
"> & 9 &.J V H #.o.| d.o.! $.k.x.V.b.w.x.x.b.Q.~.'.Q.'.4.k.8.b U ",
"> % ! @.V A } o.} } q.o.I ! ! u.b.B.0.k.k.n.L.L.^.'.Q.R.+.Z.T N ",
"% 3 *.J c P } H ! ! 2.q.J } o.u.k.b.4.u.k.S.K.L.L.).^.(.w.h.3.v ",
"+ h -.V A } H H H ! } d.2.} 2.u.a.B.w.a.v.S.F.K.L.E.`.~.V.*.g.b ",
"O P *.s ] I H H H H ! | q.q.0.0.u.x.b.x.x.n.M.F.L.F.V.).L.*.h.U ",
"@ #.| A I H A G H H I ] } #.=.0.e.u.a.a.x.b.n.F.S.V.c.I.^.5.p.W ",
"# &.+.H A H H G G H I ] } #.&.4.0.u.u.u.k.n.m.n.b.k.F.k.E.a.i./ ",
"$ &.I a H H H H H H H ] }  .$.2.4.0.u.u.a.k.k.k.a.b.x.J.k.4.0.( ",
"@ w.P A F A H H H J H I I }  .#.&.0.4.4.0.w.u.u.p.x.h.b.Q.0.0.( ",
"o 2. .t a G D A H H J I ! V } | #.=.` $.4.0.e.0.k.0.V.4.u.0.t.T ",
"  o.2.w P A A A H H H J } H ! }  .&.$.#.4.w.4.w.0.e.u.K.k.4.t.v ",
"  Z k.p c a V A H D H D H ] Q ! }  .q. . .&.&.u.4.c.&.4.p.0.4.8 ",
"  < b.V e G V A V s s a H P H I ^ ! &.q.H H ! o.#.w.n.4.4.i.^ 5 ",
"X . q.2.r B p t a a a a ! A A H ! ..J u.} H ! I } ! <.0.*.i.g 5 ",
"o   y D.s t t t h V c G B B G G H o.! H q.} |  .| o. .+.t.#.2 5 ",
"O   . 6.f.w y t a ! ! } l G V A H H 2.G ..<.w. .I } | &.u.d 2 5 ",
"O o   ; Z.X.0 a w s r c G B B V A H ! 1.D c H H J I #.i.Z > 2 2 ",
"+ o X   y I.! q t t r c F l A B A H H o. .B V H H | t.! > , < 2 ",
"O O o     x I.o.q r t B s B B B G A } z } B V A | r.! > > > , 2 ",
"+ + O o     u A.h.c w w t B a s H p G z i l H &.r.G & & , > , 2 ",
"+ + + O o     = 1.V.q.G t w w w a w r s H $.0.#.t # & > > > > 2 ",
"+ + @ + + o       6 ,.z.k.w.$.} }  .&.0.0. .a # @ & & > > > > > ",
"+ + @ @ + + + o       - h Q o.$.$. .P k 4 @ O @ & & & > > & & > ",
"@ @ @ @ @ @ @ + O o o         o o o o O O @ & & & & > > > > > > "
};
